<svg viewBox="0 0 1000 500" xmlns="http://www.w3.org/2000/svg" xmlns:xlink="http://www.w3.org/1999/xlink"><title>Gnuplot</title><desc>Produced by GNUPLOT 5.4 patchlevel 0</desc><g id="gnuplot_canvas"><rect x="0" y="0" width="1000" height="500" fill="#ffffff"></rect><defs><circle id="gpDot" r="0.5" stroke-width="0.5" stroke="currentColor"></circle><path id="gpPt0" stroke-width="0.222" stroke="currentColor" d="M-1,0 h2 M0,-1 v2"></path><path id="gpPt1" stroke-width="0.222" stroke="currentColor" d="M-1,-1 L1,1 M1,-1 L-1,1"></path><path id="gpPt2" stroke-width="0.222" stroke="currentColor" d="M-1,0 L1,0 M0,-1 L0,1 M-1,-1 L1,1 M-1,1 L1,-1"></path><rect id="gpPt3" stroke-width="0.222" stroke="currentColor" x="-1" y="-1" width="2" height="2"></rect><rect id="gpPt4" stroke-width="0.222" stroke="currentColor" fill="currentColor" x="-1" y="-1" width="2" height="2"></rect><circle id="gpPt5" stroke-width="0.222" stroke="currentColor" cx="0" cy="0" r="1"></circle><use xlink:href="#gpPt5" id="gpPt6" fill="currentColor" stroke="none"></use><path id="gpPt7" stroke-width="0.222" stroke="currentColor" d="M0,-1.33 L-1.33,0.67 L1.33,0.67 z"></path><use xlink:href="#gpPt7" id="gpPt8" fill="currentColor" stroke="none"></use><use xlink:href="#gpPt7" id="gpPt9" stroke="currentColor" transform="rotate(180)"></use><use xlink:href="#gpPt9" id="gpPt10" fill="currentColor" stroke="none"></use><use xlink:href="#gpPt3" id="gpPt11" stroke="currentColor" transform="rotate(45)"></use><use xlink:href="#gpPt11" id="gpPt12" fill="currentColor" stroke="none"></use><path id="gpPt13" stroke-width="0.222" stroke="currentColor" d="M0,1.330 L1.265,0.411 L0.782,-1.067 L-0.782,-1.076 L-1.265,0.411 z"></path><use xlink:href="#gpPt13" id="gpPt14" fill="currentColor" stroke="none"></use><filter id="textbox" filterUnits="objectBoundingBox" x="0" y="0" height="1" width="1"><feFlood flood-color="#FFFFFF" flood-opacity="1" result="bgnd"></feFlood><feComposite in="SourceGraphic" in2="bgnd" operator="atop"></feComposite></filter><filter id="greybox" filterUnits="objectBoundingBox" x="0" y="0" height="1" width="1"><feFlood flood-color="lightgrey" flood-opacity="1" result="grey"></feFlood><feComposite in="SourceGraphic" in2="grey" operator="atop"></feComposite></filter></defs><g fill="none" color="#FFFFFF" stroke="currentColor" stroke-width="1.00" stroke-linecap="butt" stroke-linejoin="miter"></g><g fill="none" color="black" stroke="currentColor" stroke-width="1.00" stroke-linecap="butt" stroke-linejoin="miter"><path stroke="black" d="M53.9,464.0 L62.9,464.0 M975.0,464.0 L966.0,464.0  "></path><g transform="translate(45.6,467.9)" stroke="none" fill="black" font-family="Arial" font-size="12.00" text-anchor="end"><text><tspan font-family="Arial">-1</tspan></text></g></g><g fill="none" color="black" stroke="currentColor" stroke-width="1.00" stroke-linecap="butt" stroke-linejoin="miter"><path stroke="black" d="M53.9,419.4 L62.9,419.4 M975.0,419.4 L966.0,419.4  "></path><g transform="translate(45.6,423.3)" stroke="none" fill="black" font-family="Arial" font-size="12.00" text-anchor="end"><text><tspan font-family="Arial">-0.8</tspan></text></g></g><g fill="none" color="black" stroke="currentColor" stroke-width="1.00" stroke-linecap="butt" stroke-linejoin="miter"><path stroke="black" d="M53.9,374.8 L62.9,374.8 M975.0,374.8 L966.0,374.8  "></path><g transform="translate(45.6,378.7)" stroke="none" fill="black" font-family="Arial" font-size="12.00" text-anchor="end"><text><tspan font-family="Arial">-0.6</tspan></text></g></g><g fill="none" color="black" stroke="currentColor" stroke-width="1.00" stroke-linecap="butt" stroke-linejoin="miter"><path stroke="black" d="M53.9,330.2 L62.9,330.2 M975.0,330.2 L966.0,330.2  "></path><g transform="translate(45.6,334.1)" stroke="none" fill="black" font-family="Arial" font-size="12.00" text-anchor="end"><text><tspan font-family="Arial">-0.4</tspan></text></g></g><g fill="none" color="black" stroke="currentColor" stroke-width="1.00" stroke-linecap="butt" stroke-linejoin="miter"><path stroke="black" d="M53.9,285.6 L62.9,285.6 M975.0,285.6 L966.0,285.6  "></path><g transform="translate(45.6,289.5)" stroke="none" fill="black" font-family="Arial" font-size="12.00" text-anchor="end"><text><tspan font-family="Arial">-0.2</tspan></text></g></g><g fill="none" color="black" stroke="currentColor" stroke-width="1.00" stroke-linecap="butt" stroke-linejoin="miter"><path stroke="black" d="M53.9,241.0 L62.9,241.0 M975.0,241.0 L966.0,241.0  "></path><g transform="translate(45.6,244.9)" stroke="none" fill="black" font-family="Arial" font-size="12.00" text-anchor="end"><text><tspan font-family="Arial">0</tspan></text></g></g><g fill="none" color="black" stroke="currentColor" stroke-width="1.00" stroke-linecap="butt" stroke-linejoin="miter"><path stroke="black" d="M53.9,196.5 L62.9,196.5 M975.0,196.5 L966.0,196.5  "></path><g transform="translate(45.6,200.4)" stroke="none" fill="black" font-family="Arial" font-size="12.00" text-anchor="end"><text><tspan font-family="Arial">0.2</tspan></text></g></g><g fill="none" color="black" stroke="currentColor" stroke-width="1.00" stroke-linecap="butt" stroke-linejoin="miter"><path stroke="black" d="M53.9,151.9 L62.9,151.9 M975.0,151.9 L966.0,151.9  "></path><g transform="translate(45.6,155.8)" stroke="none" fill="black" font-family="Arial" font-size="12.00" text-anchor="end"><text><tspan font-family="Arial">0.4</tspan></text></g></g><g fill="none" color="black" stroke="currentColor" stroke-width="1.00" stroke-linecap="butt" stroke-linejoin="miter"><path stroke="black" d="M53.9,107.3 L62.9,107.3 M975.0,107.3 L966.0,107.3  "></path><g transform="translate(45.6,111.2)" stroke="none" fill="black" font-family="Arial" font-size="12.00" text-anchor="end"><text><tspan font-family="Arial">0.6</tspan></text></g></g><g fill="none" color="black" stroke="currentColor" stroke-width="1.00" stroke-linecap="butt" stroke-linejoin="miter"><path stroke="black" d="M53.9,62.7 L62.9,62.7 M975.0,62.7 L966.0,62.7  "></path><g transform="translate(45.6,66.6)" stroke="none" fill="black" font-family="Arial" font-size="12.00" text-anchor="end"><text><tspan font-family="Arial">0.8</tspan></text></g></g><g fill="none" color="black" stroke="currentColor" stroke-width="1.00" stroke-linecap="butt" stroke-linejoin="miter"><path stroke="black" d="M53.9,18.1 L62.9,18.1 M975.0,18.1 L966.0,18.1  "></path><g transform="translate(45.6,22.0)" stroke="none" fill="black" font-family="Arial" font-size="12.00" text-anchor="end"><text><tspan font-family="Arial">1</tspan></text></g></g><g fill="none" color="black" stroke="currentColor" stroke-width="1.00" stroke-linecap="butt" stroke-linejoin="miter"><path stroke="black" d="M53.9,464.0 L53.9,455.0 M53.9,18.1 L53.9,27.1  "></path><g transform="translate(53.9,485.9)" stroke="none" fill="black" font-family="Arial" font-size="12.00" text-anchor="middle"><text><tspan font-family="Arial">-10</tspan></text></g></g><g fill="none" color="black" stroke="currentColor" stroke-width="1.00" stroke-linecap="butt" stroke-linejoin="miter"><path stroke="black" d="M284.2,464.0 L284.2,455.0 M284.2,18.1 L284.2,27.1  "></path><g transform="translate(284.2,485.9)" stroke="none" fill="black" font-family="Arial" font-size="12.00" text-anchor="middle"><text><tspan font-family="Arial">-5</tspan></text></g></g><g fill="none" color="black" stroke="currentColor" stroke-width="1.00" stroke-linecap="butt" stroke-linejoin="miter"><path stroke="black" d="M514.5,464.0 L514.5,455.0 M514.5,18.1 L514.5,27.1  "></path><g transform="translate(514.5,485.9)" stroke="none" fill="black" font-family="Arial" font-size="12.00" text-anchor="middle"><text><tspan font-family="Arial">0</tspan></text></g></g><g fill="none" color="black" stroke="currentColor" stroke-width="1.00" stroke-linecap="butt" stroke-linejoin="miter"><path stroke="black" d="M744.7,464.0 L744.7,455.0 M744.7,18.1 L744.7,27.1  "></path><g transform="translate(744.7,485.9)" stroke="none" fill="black" font-family="Arial" font-size="12.00" text-anchor="middle"><text><tspan font-family="Arial">5</tspan></text></g></g><g fill="none" color="black" stroke="currentColor" stroke-width="1.00" stroke-linecap="butt" stroke-linejoin="miter"><path stroke="black" d="M975.0,464.0 L975.0,455.0 M975.0,18.1 L975.0,27.1  "></path><g transform="translate(975.0,485.9)" stroke="none" fill="black" font-family="Arial" font-size="12.00" text-anchor="middle"><text><tspan font-family="Arial">10</tspan></text></g></g><g fill="none" color="black" stroke="currentColor" stroke-width="1.00" stroke-linecap="butt" stroke-linejoin="miter"></g><g fill="none" color="black" stroke="currentColor" stroke-width="1.00" stroke-linecap="butt" stroke-linejoin="miter"><path stroke="black" d="M53.9,18.1 L53.9,464.0 L975.0,464.0 L975.0,18.1 L53.9,18.1 Z  "></path></g><g fill="none" color="black" stroke="currentColor" stroke-width="1.00" stroke-linecap="butt" stroke-linejoin="miter"></g><g id="gnuplot_plot_1"><title>sin(x)</title><g fill="none" color="black" stroke="currentColor" stroke-width="1.00" stroke-linecap="butt" stroke-linejoin="miter"><g transform="translate(907.9,40.0)" stroke="none" fill="black" font-family="Arial" font-size="12.00" text-anchor="end"><text>sin(x)</text></g></g><g fill="none" color="black" stroke="currentColor" stroke-width="1.00" stroke-linecap="butt" stroke-linejoin="miter"><path stroke="rgb(148,   0, 211)" d="M916.2,36.1 L958.4,36.1 M53.9,119.8 L63.2,159.8 L72.5,203.1 L81.8,247.9 L91.1,292.5 L100.4,335.0
		L109.7,373.6 L119.0,406.9 L128.3,433.4 L137.6,452.1 L146.9,462.2 L156.2,463.4 L165.5,455.4 L174.9,438.8
		L184.2,414.1 L193.5,382.4 L202.8,344.9 L212.1,303.2 L221.4,259.0 L230.7,214.0 L240.0,170.2 L249.3,129.2
		L258.6,92.8 L267.9,62.4 L277.2,39.3 L286.5,24.3 L295.8,18.2 L305.1,21.2 L314.4,33.1 L323.7,53.5
		L333.0,81.5 L342.3,115.9 L351.6,155.5 L360.9,198.6 L370.2,243.3 L379.5,288.0 L388.8,330.8 L398.1,369.9
		L407.5,403.8 L416.8,431.1 L426.1,450.6 L435.4,461.6 L444.7,463.7 L454.0,456.6 L463.3,440.9 L472.6,416.9
		L481.9,385.9 L491.2,348.9 L500.5,307.6 L509.8,263.5 L519.1,218.6 L528.4,174.5 L537.7,133.2 L547.0,96.2
		L556.3,65.2 L565.6,41.2 L574.9,25.5 L584.2,18.4 L593.5,20.5 L602.8,31.5 L612.1,51.0 L621.4,78.3
		L630.8,112.2 L640.1,151.3 L649.4,194.1 L658.7,238.8 L668.0,283.5 L677.3,326.6 L686.6,366.2 L695.9,400.6
		L705.2,428.6 L714.5,449.0 L723.8,460.9 L733.1,463.9 L742.4,457.8 L751.7,442.8 L761.0,419.7 L770.3,389.3
		L779.6,352.9 L788.9,311.9 L798.2,268.1 L807.5,223.1 L816.8,178.9 L826.1,137.2 L835.4,99.7 L844.7,68.0
		L854.0,43.3 L863.4,26.7 L872.7,18.7 L882.0,19.9 L891.3,30.0 L900.6,48.7 L909.9,75.2 L919.2,108.5
		L928.5,147.1 L937.8,189.6 L947.1,234.2 L956.4,279.0 L965.7,322.3 L975.0,362.3  "></path></g></g><g fill="none" color="#FFFFFF" stroke="rgb(148,   0, 211)" stroke-width="2.00" stroke-linecap="butt" stroke-linejoin="miter"></g><g fill="none" color="black" stroke="currentColor" stroke-width="2.00" stroke-linecap="butt" stroke-linejoin="miter"></g><g fill="none" color="black" stroke="black" stroke-width="1.00" stroke-linecap="butt" stroke-linejoin="miter"></g><g fill="none" color="black" stroke="currentColor" stroke-width="1.00" stroke-linecap="butt" stroke-linejoin="miter"><path stroke="black" d="M53.9,18.1 L53.9,464.0 L975.0,464.0 L975.0,18.1 L53.9,18.1 Z  "></path></g><g fill="none" color="black" stroke="currentColor" stroke-width="1.00" stroke-linecap="butt" stroke-linejoin="miter"></g></g></svg>