<svg
  xmlns="http://www.w3.org/2000/svg"
  version="1.1"
  viewBox="0 0 100 100"
>
  <path d="M82.484,45.81c-0.505-0.18-1.04-0.328-1.59-0.42c0.374-1.699,0.201-3.409-0.51-4.908c-0.857-1.809-2.447-3.203-4.475-3.925  c-1.308-0.466-2.552-0.61-3.723-0.435c-0.529-2.724-2.44-5.111-5.235-6.109c-1.133-0.402-2.273-0.487-3.364-0.307l3.001-12.44  c1.127-3.667-0.903-7.585-4.564-8.77c-3.691-1.196-7.67,0.836-8.855,4.486l-12.653,36.72l-1.311,0.051l-12.971-5.113  c-1.556-0.819-3.344-1.007-5.052-0.527c-1.771,0.497-3.239,1.65-4.133,3.246l-0.003,0.007c-0.893,1.594-1.112,3.445-0.615,5.212  c0.49,1.743,1.615,3.192,3.173,4.091l7.583,4.902l8.622,11.412l0.181,0.213c0.755,0.796,1.383,3.343,1.811,6.479l-6.438,0.382  l-0.034,14.576h48.486l0.032-17.451l-6.892,0.409c0.017-0.038,0.033-0.085,0.051-0.115c4.02-6.756,12.818-21.174,12.907-21.318  l0.222-0.464C87.804,51,86.407,47.213,82.484,45.81z M81.502,53.784c-1.155,1.893-9.042,14.828-12.794,21.135  c-0.425,0.714-0.738,1.761-0.967,2.981l-24.908,1.477c-0.496-3.772-1.413-7.598-3.104-9.501L30.91,58.204l-0.637-0.592l-8.014-5.181  l-0.135-0.082c-0.432-0.241-0.744-0.641-0.879-1.124c-0.136-0.483-0.078-0.987,0.164-1.418l0.003-0.007  c0.241-0.428,0.639-0.738,1.122-0.874c0.485-0.135,0.99-0.078,1.421,0.165l13.905,5.506l1.014,0.172l3.545-0.137l2.267-1.684  l13.225-38.38c0.348-1.073,1.5-1.665,2.574-1.316c1.072,0.347,1.662,1.502,1.315,2.575l-6.04,25.009l4.86,1.173l0.036-0.148  l1.419-4.743c0.192-0.493,1.298-3.073,3.2-2.395c1.606,0.574,2.449,2.347,1.887,3.956l-2.344,6.584l4.71,1.677l0.836-2.349  l0.004,0.001l0.012-0.033c0.832-2.332,1.633-3.12,2.16-3.37c0.156-0.074,0.63-0.301,1.692,0.078  c0.781,0.278,1.346,0.747,1.635,1.356c0.291,0.615,0.296,1.358,0.012,2.152l-1.649,4.634l-0.39,1.093l4.709,1.681l0.083-0.233  l0.001,0c0.701-1.955,0.925-1.875,2.172-1.431C81.285,50.691,82.394,51.088,81.502,53.784z" />
  <polygon points="31.073,18.195 34.608,21.73 39.719,16.62 45.316,22.216 47.437,5.367 30.587,7.488 36.184,13.085 " />
  <polygon points="24.426,31.912 29.537,26.802 26.002,23.267 20.891,28.377 15.294,22.781 13.173,39.63 30.023,37.509 " />
</svg>
